# xmcd
#
# Track frame offsets: 
#        150
#        17128
#        38578
#        52871
#        69699
#        85364
#        97684
#        117150
#        140038
#        157173
#        172581
#
# Disc length: 2588 seconds
#
# Revision: 2
# Processed by: cddbd v1.5.2PL0 Copyright (c) Steve Scherf et al.
# Submitted via: ExactAudioCopyFreeDBPlugin 1.0
#
DISCID=840a1a0b
DTITLE=McKinley Black - Beggars, Fools and Thieves
DYEAR=2011
DGENRE=Pop-Folk
TTITLE0=High Noon
TTITLE1=All I Need
TTITLE2=Beggars, Fools and Thieves
TTITLE3=Hold On
TTITLE4=Mother
TTITLE5=Love Like Mine
TTITLE6=Bailinho da Maria
TTITLE7=Hunger
TTITLE8=Free
TTITLE9=Westwinds
TTITLE10=This Train
EXTD=
EXTT0=
EXTT1=
EXTT2=
EXTT3=
EXTT4=
EXTT5=
EXTT6=
EXTT7=
EXTT8=
EXTT9=
EXTT10=
PLAYORDER=
